<svg id="圖層_1" data-name="圖層 1" xmlns="http://www.w3.org/2000/svg" viewBox="0 0 286.86 103.69"><defs><style>.cls-1{fill:none;stroke-width:8px;}.cls-1,.cls-2{stroke:#000;stroke-miterlimit:10;}.cls-2{stroke-width:4px;}</style></defs><title>bear</title><path class="cls-1" d="M142.77,58.38s-22.7-26.84-42.91,0c-13.14,17.45,3.38,44.86,19.9,51.24l.75,28.91" transform="translate(-91.1 -36.61)"/><rect x="74.08" y="48.61" width="15.39" height="14.27"/><rect x="199.69" y="48.75" width="15.39" height="14.27"/><path class="cls-1" d="M189.21,57.81s49.55-40.17,92,2.26" transform="translate(-91.1 -36.61)"/><path class="cls-1" d="M326.29,59.24s22.7-26.84,42.91,0c13.14,17.45-3.38,44.86-19.9,51.24l-.75,28.91" transform="translate(-91.1 -36.61)"/><path class="cls-2" d="M229,113.37s-26.36-26-2.25-43.17c8.45-6,20.65-5.63,27.78,7.89s1.88,25.15-7.88,37.91S229,113.37,229,113.37Z" transform="translate(-91.1 -36.61)"/><path class="cls-1" d="M198.59,125.39s19.15,24.77,36.61-4.32" transform="translate(-91.1 -36.61)"/><path class="cls-1" d="M271.8,126.46s-19.15,24.77-36.6-4.32" transform="translate(-91.1 -36.61)"/></svg>